<?xml version="1.0" encoding="UTF-8" standalone="no"?>
<svg
   version="1.1"
   width="1024px"
   height="1024px"
   style="shape-rendering:geometricPrecision; text-rendering:geometricPrecision; image-rendering:optimizeQuality; fill-rule:evenodd; clip-rule:evenodd"
   id="svg7"
   sodipodi:docname="ngfjtgjtgjgjhgfhtjfjughjh.svg"
   inkscape:version="1.4.2 (f4327f4, 2025-05-13)"
   xmlns:inkscape="http://www.inkscape.org/namespaces/inkscape"
   xmlns:sodipodi="http://sodipodi.sourceforge.net/DTD/sodipodi-0.dtd"
   xmlns="http://www.w3.org/2000/svg"
   xmlns:svg="http://www.w3.org/2000/svg">
  <defs
     id="defs7" />
  <sodipodi:namedview
     id="namedview7"
     pagecolor="#505050"
     bordercolor="#eeeeee"
     borderopacity="1"
     inkscape:showpageshadow="0"
     inkscape:pageopacity="0"
     inkscape:pagecheckerboard="0"
     inkscape:deskcolor="#505050"
     inkscape:zoom="0.78808594"
     inkscape:cx="333.0855"
     inkscape:cy="477.73978"
     inkscape:window-width="1920"
     inkscape:window-height="1009"
     inkscape:window-x="-8"
     inkscape:window-y="1072"
     inkscape:window-maximized="1"
     inkscape:current-layer="svg7" />
  <g
     id="g1"
     inkscape:label="mango">
    <path
       style="opacity:1;fill:#1cbcb0;fill-opacity:1"
       fill="#9b9c9b"
       d="m 408.5,88.5 c 15.266,-1.7987 25.099,4.5347 29.5,19 0.179,28.197 0.679,56.363 1.5,84.5 -0.309,159.34 -0.475,318.84 -0.5,478.5 29.551,-1.256 59.051,0.577 88.5,5.5 19.913,3.209 37.413,11.376 52.5,24.5 3.667,6 7.333,12 11,18 2.295,6.433 3.128,12.933 2.5,19.5 -103.667,0.667 -207.333,0.667 -311,0 -1.669,-8.031 -0.169,-15.531 4.5,-22.5 14.604,-21.247 34.771,-34.414 60.5,-39.5 13.926,-2.271 27.926,-3.771 42,-4.5 -0.167,-188 0,-376 0.5,-564 2.384,-10.2154 8.551,-16.5487 18.5,-19 z"
       id="path1" />
  </g>
  <g
     id="g2"
     inkscape:label="Pala"
     style="fill:#2ca089">
    <path
       style="opacity:1;fill:#1cbcb0;fill-opacity:0.6901961"
       fill="#9b9b9b"
       d="m 741.5,449.5 c 8.791,-0.409 17.458,0.424 26,2.5 28.42,8.272 57.087,15.605 86,22 1.829,0.273 3.329,1.107 4.5,2.5 1.151,21.772 1.651,43.605 1.5,65.5 -0.624,39.021 -0.624,78.021 0,117 0.138,16.884 -0.362,33.717 -1.5,50.5 -19.696,5.549 -39.53,10.716 -59.5,15.5 -14.591,3.385 -29.258,6.385 -44,9 -20.774,1.581 -39.774,-3.419 -57,-15 -33.227,-24.268 -51.561,-57.101 -55,-98.5 -30.209,-0.648 -60.376,-1.314 -90.5,-2 -11.532,1.528 -23.032,1.028 -34.5,-1.5 -13.926,-7.364 -19.093,-18.864 -15.5,-34.5 5.72,-15.039 16.72,-22.039 33,-21 35.51,0.395 71.01,0.729 106.5,1 6.802,-41.479 27.135,-74.312 61,-98.5 12.285,-7.159 25.285,-11.993 39,-14.5 z"
       id="path2"
       sodipodi:nodetypes="cccccccccccccccccc" />
  </g>
  <g
     id="g4"
     inkscape:label="gris oscuro"
     style="clip-rule:evenodd;fill-rule:evenodd;image-rendering:optimizeQuality;shape-rendering:geometricPrecision;text-rendering:geometricPrecision">
    <path
       style="opacity:1;fill:#008080"
       fill="#4a4a4a"
       d="m 754.38228,502.98327 c -15.48917,11.58545 -44.37107,70.50024 -38.41162,110.81426 2.85794,22.12238 12.86766,43.14303 26.78466,60.41285 15.92316,15.3428 37.64149,23.68794 59.59871,24.56632 4.18592,-0.27149 20.03567,4.1462 7.78912,3.76278 -10.80189,-0.9959 -21.63794,-1.53742 -32.40629,-2.77411 C 753.50906,695.45567 731.97408,680.83489 716,662.5 c -13.75742,-21.98025 -21.54362,-48.17538 -20.12961,-74.17273 1.95526,-21.09796 7.76506,-42.11716 18.34594,-60.53702 11.152,-15.69251 24.87672,-29.92227 41.16595,-40.30698 19.35708,-3.43551 36.39777,-7.16964 59.5566,-7.16311 -23.89072,3.43954 -57.26361,18.12705 -60.5566,22.66311 z"
       id="path4"
       sodipodi:nodetypes="cccccccccccc"
       sodipodi:insensitive="true" />
  </g>
  <g
     id="g3"
     inkscape:label="negro">
    <path
       style="opacity:1;fill:#133b66;fill-opacity:1"
       fill="#010101"
       d="m 800.5,476.5 c 4.745,1.823 9.745,3.157 15,4 -24.078,1.247 -47.078,6.747 -69,16.5 -14.226,8.27 -25.559,19.437 -34,33.5 -10.099,19.839 -15.766,40.839 -17,63 0.52,25.045 7.354,48.045 20.5,69 13.273,15.436 29.439,26.769 48.5,34 10.74767,2.40373 18.35271,3.74512 29,4.5 8,0.333 16,0.667 24,1 1.124,0.249 2.124,0.749 3,1.5 -2.776,1.015 -5.443,2.015 -8,3 -19.855,2.184 -39.688,4.517 -59.5,7 -19.351,-0.429 -36.184,-7.096 -50.5,-20 -23.545,-22.101 -36.045,-49.434 -37.5,-82 -3.597,-33.283 2.403,-64.616 18,-94 13.82,-22.491 33.32,-37.657 58.5,-45.5 19.777,0.068 39.443,1.568 59,4.5 z"
       id="path3"
       sodipodi:nodetypes="ccccccccccccccccc" />
  </g>
  <g
     id="g5"
     inkscape:label="punto negro">
    <path
       style="opacity:1;fill:#133b66;fill-opacity:1"
       fill="#050505"
       d="m 525.5,581.5 c 11.313,-0.649 15.479,4.351 12.5,15 -6.44,6.909 -12.44,6.575 -18,-1 -1.651,-6.14 0.182,-10.806 5.5,-14 z"
       id="path5" />
  </g>
  <g
     id="g7"
     inkscape:label="escoba">
    <path
       style="opacity:1;fill:#133b66;fill-opacity:1"
       fill="#000000"
       d="m 281.5,753.5 c 15.911,-0.325 31.744,0.009 47.5,1 1.18,33.739 -4.153,66.405 -16,98 -3.846,9.192 -8.346,18.026 -13.5,26.5 0.525,0.692 1.192,1.192 2,1.5 13.172,-12.698 23.005,-27.698 29.5,-45 9.641,-25.565 16.308,-51.898 20,-79 0.833,-0.833 1.667,-1.667 2.5,-2.5 13.575,-0.822 27.075,-0.656 40.5,0.5 -0.695,10.638 -1.695,21.304 -3,32 -2.552,16.416 -5.219,32.75 -8,49 12.471,-25.214 19.637,-51.881 21.5,-80 21,-0.75 42,-1.417 63,-2 2.723,0.051 5.39,0.384 8,1 2.715,22.194 8.548,43.527 17.5,64 -2.492,-21.257 -4.659,-42.591 -6.5,-64 14.037,-0.977 28.037,-0.977 42,0 5.469,28.209 12.969,55.875 22.5,83 6.028,17.069 14.861,32.403 26.5,46 0.333,-0.333 0.667,-0.667 1,-1 -19.563,-40.863 -28.229,-83.696 -26,-128.5 11.725,-0.264 23.391,-0.431 35,-0.5 2.795,-0.047 5.461,0.453 8,1.5 1.808,44.406 13.642,85.906 35.5,124.5 6.562,7.557 12.728,15.391 18.5,23.5 -2.213,2.081 -4.88,3.415 -8,4 -71.638,13.943 -143.972,20.443 -217,19.5 -0.16,-1.699 0.006,-3.366 0.5,-5 4.523,-7.045 8.523,-14.378 12,-22 1.65,-3.933 2.65,-7.933 3,-12 -10.617,10.957 -22.117,20.79 -34.5,29.5 -9.892,5.779 -20.559,8.946 -32,9.5 -52.842,-2.93 -105.175,-9.597 -157,-20 -0.262,-1.478 0.071,-2.811 1,-4 18.799,-10.632 32.965,-25.632 42.5,-45 13.719,-33.317 20.886,-67.984 21.5,-104 z"
       id="path7" />
  </g>
</svg>
